{
    "asset" : {
        "generator" : "Khronos glTF Blender I/O v1.0.5",
        "version" : "2.0"
    },
    "scene" : 0,
    "scenes" : [
        {
            "name" : "Scene",
            "nodes" : [
                1
            ]
        }
    ],
    "nodes" : [
        {
            "mesh" : 0,
            "name" : "coin",
            "rotation" : [
                -0.7071068286895752,
                0,
                0,
                -0.7071067094802856
            ],
            "scale" : [
                0.10000000149011612,
                0.10000000149011612,
                0.10000000149011612
            ]
        },
        {
            "children" : [
                0
            ],
            "name" : "stage",
            "rotation" : [
                0.7071067690849304,
                0,
                0,
                0.7071067690849304
            ]
        }
    ],
    "animations" : [
        {
            "channels" : [
                {
                    "sampler" : 0,
                    "target" : {
                        "node" : 0,
                        "path" : "rotation"
                    }
                }
            ],
            "name" : "ECCAction_ECC.001_coin",
            "samplers" : [
                {
                    "input" : 8,
                    "interpolation" : "LINEAR",
                    "output" : 9
                }
            ]
        }
    ],
    "materials" : [
        {
            "doubleSided" : true,
            "name" : "Mat.003",
            "pbrMetallicRoughness" : {
                "baseColorTexture" : {
                    "index" : 0,
                    "texCoord" : 0
                },
                "metallicFactor" : 0,
                "roughnessFactor" : 0.5
            }
        },
        {
            "doubleSided" : true,
            "name" : "Mat.004",
            "pbrMetallicRoughness" : {
                "baseColorFactor" : [
                    1,
                    0.6165419816970825,
                    0.057471465319395065,
                    1
                ],
                "metallicFactor" : 0,
                "roughnessFactor" : 0.5527864098548889
            }
        }
    ],
    "meshes" : [
        {
            "name" : "Mesh.002",
            "primitives" : [
                {
                    "attributes" : {
                        "POSITION" : 0,
                        "NORMAL" : 1,
                        "TEXCOORD_0" : 2
                    },
                    "indices" : 3,
                    "material" : 0
                },
                {
                    "attributes" : {
                        "POSITION" : 4,
                        "NORMAL" : 5,
                        "TEXCOORD_0" : 6
                    },
                    "indices" : 7,
                    "material" : 1
                }
            ]
        }
    ],
    "textures" : [
        {
            "source" : 0
        }
    ],
    "images" : [
        {
            "bufferView" : 4,
            "mimeType" : "image/png",
            "name" : "Image_0"
        }
    ],
    "accessors" : [
        {
            "bufferView" : 0,
            "componentType" : 5126,
            "count" : 796,
            "max" : [
                13.342669486999512,
                8.847724914550781,
                4.541815757751465
            ],
            "min" : [
                -13.342670440673828,
                -10.189132690429688,
                -4.425355911254883
            ],
            "type" : "VEC3"
        },
        {
            "bufferView" : 1,
            "componentType" : 5126,
            "count" : 796,
            "type" : "VEC3"
        },
        {
            "bufferView" : 2,
            "componentType" : 5126,
            "count" : 796,
            "type" : "VEC2"
        },
        {
            "bufferView" : 3,
            "componentType" : 5123,
            "count" : 936,
            "type" : "SCALAR"
        },
        {
            "bufferView" : 5,
            "componentType" : 5126,
            "count" : 2688,
            "max" : [
                18.572784423828125,
                17.902080535888672,
                1.9504766464233398
            ],
            "min" : [
                -18.57278823852539,
                -19.243488311767578,
                -1.9880247116088867
            ],
            "type" : "VEC3"
        },
        {
            "bufferView" : 6,
            "componentType" : 5126,
            "count" : 2688,
            "type" : "VEC3"
        },
        {
            "bufferView" : 7,
            "componentType" : 5126,
            "count" : 2688,
            "type" : "VEC2"
        },
        {
            "bufferView" : 8,
            "componentType" : 5123,
            "count" : 2952,
            "type" : "SCALAR"
        },
        {
            "bufferView" : 9,
            "componentType" : 5126,
            "count" : 49,
            "max" : [
                2
            ],
            "min" : [
                0
            ],
            "type" : "SCALAR"
        },
        {
            "bufferView" : 10,
            "componentType" : 5126,
            "count" : 49,
            "type" : "VEC4"
        }
    ],
    "bufferViews" : [
        {
            "buffer" : 0,
            "byteLength" : 9552,
            "byteOffset" : 0
        },
        {
            "buffer" : 0,
            "byteLength" : 9552,
            "byteOffset" : 9552
        },
        {
            "buffer" : 0,
            "byteLength" : 6368,
            "byteOffset" : 19104
        },
        {
            "buffer" : 0,
            "byteLength" : 1872,
            "byteOffset" : 25472
        },
        {
            "buffer" : 0,
            "byteLength" : 22296,
            "byteOffset" : 27344
        },
        {
            "buffer" : 0,
            "byteLength" : 32256,
            "byteOffset" : 49640
        },
        {
            "buffer" : 0,
            "byteLength" : 32256,
            "byteOffset" : 81896
        },
        {
            "buffer" : 0,
            "byteLength" : 21504,
            "byteOffset" : 114152
        },
        {
            "buffer" : 0,
            "byteLength" : 5904,
            "byteOffset" : 135656
        },
        {
            "buffer" : 0,
            "byteLength" : 196,
            "byteOffset" : 141560
        },
        {
            "buffer" : 0,
            "byteLength" : 784,
            "byteOffset" : 141756
        }
    ],
    "buffers" : [
        {
            "byteLength" : 142540,
            "uri" : "data:application/octet-stream;base64,"
        }
    ]
}
